<?xml version="1.0" encoding="utf-8"?>
<!-- Generator: Adobe Illustrator 25.0.1, SVG Export Plug-In . SVG Version: 6.00 Build 0)  -->
<svg version="1.1" id="Layer_1" xmlns="http://www.w3.org/2000/svg" xmlns:xlink="http://www.w3.org/1999/xlink" x="0px" y="0px"
	 viewBox="0 0 1000 715" style="enable-background:new 0 0 1000 715;" xml:space="preserve">
<style type="text/css">
	.st0{fill:#00AE42;}
</style>
<g>
	<path class="st0" d="M146.38,335.12V192.15L0,0h106.72l83.61,119.86L273.04,0h106.27L230.21,192.15v142.98H146.38z"/>
	<path class="st0" d="M624.64,254c-10.27,28.7-28.1,50.87-53.47,66.5c-25.38,15.63-56.27,23.45-92.67,23.45
		c-46.22,0-82.82-12.04-109.78-36.14c-26.96-24.09-40.45-56.76-40.45-98c0-41.24,13.44-73.83,40.33-97.77
		c26.89-23.94,63.52-35.91,109.9-35.91c48.18,0,85.31,12.43,111.37,37.27c26.06,24.85,39.09,60.24,39.09,106.16v10.65H415.5
		c0.45,18.28,6.38,32.82,17.79,43.62c11.4,10.8,26.47,16.2,45.2,16.2c14.65,0,27.27-3.13,37.84-9.4
		c10.57-6.27,18.2-15.14,22.88-26.62H624.64z M417.77,178.1l125.08,0.23c-1.36-15.56-7.63-27.79-18.81-36.71
		c-11.18-8.91-25.76-13.37-43.73-13.37c-17.83,0-32.37,4.5-43.62,13.48C425.43,150.72,419.13,162.84,417.77,178.1z"/>
	<path class="st0" d="M677.57,335.12V0h198.49c38.97,0,69.37,10.08,91.2,30.25C989.08,50.42,1000,78.4,1000,114.2
		c0,35.8-10.92,63.71-32.74,83.72c-21.83,20.02-52.23,30.02-91.2,30.02H761.63v107.18H677.57z M761.63,162.46h77.04
		c28.25,0,48.04-3.59,59.37-10.76c11.33-7.17,16.99-19.22,16.99-36.14c0-17.37-4.91-29.53-14.73-36.48
		c-9.82-6.95-28.55-10.42-56.19-10.42h-82.48V162.46z"/>
	<path class="st0" d="M146.38,706.16V563.19L0,371.04h106.72l83.61,119.86l82.7-119.86h106.27L230.21,563.19v142.98H146.38z"/>
	<path class="st0" d="M624.64,625.05c-10.27,28.7-28.1,50.87-53.47,66.5C545.79,707.18,514.9,715,478.49,715
		c-46.22,0-82.82-12.04-109.78-36.14c-26.96-24.09-40.45-56.76-40.45-98s13.44-73.83,40.33-97.77
		c26.89-23.94,63.52-35.91,109.9-35.91c48.18,0,85.31,12.43,111.37,37.27c26.06,24.85,39.09,60.24,39.09,106.16v10.65H415.5
		c0.45,18.28,6.38,32.82,17.79,43.62c11.4,10.8,26.47,16.2,45.2,16.2c14.65,0,27.27-3.13,37.84-9.4
		c10.57-6.27,18.2-15.14,22.88-26.62H624.64z M417.77,549.14l125.08,0.23c-1.36-15.56-7.63-27.79-18.81-36.71
		c-11.18-8.91-25.76-13.37-43.73-13.37c-17.83,0-32.37,4.5-43.62,13.48C425.43,521.76,419.13,533.88,417.77,549.14z"/>
	<path class="st0" d="M677.57,706.16V371.04h198.49c38.97,0,69.37,10.08,91.2,30.25c21.83,20.17,32.74,48.15,32.74,83.95
		c0,35.8-10.92,63.71-32.74,83.72c-21.83,20.02-52.23,30.02-91.2,30.02H761.63v107.18H677.57z M761.63,533.5h77.04
		c28.25,0,48.04-3.59,59.37-10.76c11.33-7.17,16.99-19.22,16.99-36.14c0-17.37-4.91-29.53-14.73-36.48
		c-9.82-6.95-28.55-10.42-56.19-10.42h-82.48V533.5z"/>
</g>
</svg>
